<svg id="Layer_1" data-name="Layer 1" xmlns="http://www.w3.org/2000/svg" width="50.49mm" height="39.98mm" viewBox="0 0 143.12 113.32"><defs><style>.cls-1,.cls-10,.cls-11,.cls-12,.cls-13,.cls-14,.cls-15,.cls-16,.cls-18,.cls-2,.cls-3,.cls-4,.cls-5,.cls-6,.cls-7,.cls-8,.cls-9{fill:none;stroke-miterlimit:10;stroke-width:2px;}.cls-1{stroke:#e86d33;}.cls-2{stroke:#adafd8;}.cls-3{stroke:#f3ae43;}.cls-4{stroke:#4db287;}.cls-5{stroke:#4a286d;}.cls-6{stroke:#2a79bd;}.cls-7{stroke:#b22b26;}.cls-8{stroke:#6da691;}.cls-9{stroke:#f29d40;}.cls-10{stroke:#df406e;}.cls-11{stroke:#eb72a9;}.cls-12{stroke:#378cb2;}.cls-13{stroke:#225466;}.cls-14{stroke:#dea075;}.cls-15{stroke:#e7d043;}.cls-16{stroke:#9b7db7;}.cls-17{fill:#231f20;}.cls-18{stroke:#f1ae45;}</style></defs><title>pw_logo</title><line class="cls-1" x1="37.64" y1="11.81" x2="59.28" y2="109.9"/><line class="cls-2" x1="41.49" y1="11.78" x2="62.38" y2="109.99"/><line class="cls-3" x1="44.54" y1="11.75" x2="64.62" y2="109.9"/><line class="cls-4" x1="48.59" y1="11.72" x2="67.79" y2="109.94"/><line class="cls-5" x1="59.74" y1="109.99" x2="83.52" y2="11.62"/><line class="cls-6" x1="86.19" y1="11.62" x2="63.08" y2="109.96"/><line class="cls-7" x1="89.03" y1="11.62" x2="65.43" y2="110.07"/><line class="cls-8" x1="92.36" y1="11.62" x2="68.09" y2="109.94"/><line class="cls-9" x1="83.52" y1="11.62" x2="109.63" y2="110.07"/><line class="cls-10" x1="86.19" y1="11.62" x2="112.95" y2="110.11"/><line class="cls-11" x1="89.55" y1="11.62" x2="115.77" y2="110.12"/><line class="cls-12" x1="92.69" y1="11.62" x2="117.97" y2="110.06"/><line class="cls-13" x1="110.14" y1="110.22" x2="131.79" y2="11.06"/><line class="cls-14" x1="113.07" y1="110.12" x2="134.44" y2="11.04"/><line class="cls-15" x1="116.14" y1="110.13" x2="137.43" y2="11.02"/><line class="cls-16" x1="118.2" y1="110.12" x2="140.26" y2="11"/><path class="cls-17" d="M2.9,108.94V1.57H36.08q11.72,0,17.28,2.05A23.34,23.34,0,0,1,65.52,13.94q4.55,7.55,4.54,18.53,0,14.51-7.4,23.66T37.1,65.29H14.54v43.65Zm34.92-94.7H14.54V52.62H37.32q10.77,0,15.75-4.88t5-14.68A22.69,22.69,0,0,0,55.6,22.15a14,14,0,0,0-5.94-6.23q-3.33-1.62-11.84-1.68"/><line class="cls-1" x1="46.25" y1="50.81" x2="49.83" y2="67.05"/><line class="cls-2" x1="49.41" y1="49.02" x2="52.97" y2="65.75"/><line class="cls-18" x1="51.75" y1="46.97" x2="55.82" y2="66.85"/><line class="cls-4" x1="54.95" y1="44.26" x2="58.7" y2="63.43"/></svg>
