<svg id="Layer_1" data-name="Layer 1" xmlns="http://www.w3.org/2000/svg" width="113.49mm" height="59.66mm" viewBox="0 0 321.71 169.13"><defs><style>.cls-1{font-size:12px;letter-spacing:0.54em;}.cls-1,.cls-3,.cls-4,.cls-5,.cls-6{fill:#231f20;font-family:Helvetica-Light, Helvetica;font-weight:300;}.cls-2{fill:#fff;}.cls-3{font-size:56.01px;letter-spacing:0.54em;}.cls-4{font-size:178.75px;letter-spacing:0.54em;}.cls-5{font-size:56.55px;letter-spacing:0.54em;}.cls-6{font-size:9px;}</style></defs><title>cv</title><text class="cls-1" transform="translate(12.18 89.56)">2014.2015.2016.2017.2018</text><polygon class="cls-2" points="66.27 90.22 66.39 113.56 7.04 113.99 6.92 90.65 66.27 90.22"/><text class="cls-3" transform="matrix(-0.01, -1.16, 1, -0.01, 51.13, 112.33)">{</text><polygon class="cls-2" points="128.72 80.01 130.03 58.32 319.45 60.05 318.14 81.74 128.72 80.01"/><text class="cls-4" transform="matrix(-0.02, 0.34, -1, -0.01, 178.66, 60.01)">{</text><polygon class="cls-2" points="189.75 89.84 189.88 111.93 129.95 112.34 129.82 90.25 189.75 89.84"/><text class="cls-5" transform="matrix(-0.01, -1.08, 1, -0.01, 174.46, 110.76)">{</text><text class="cls-6" transform="translate(6.92 124.64)">student.medielinje.<tspan x="0" y="10.8">kultorvet.Niels Brock.</tspan></text><text class="cls-6" transform="translate(125.78 124.87)">CPH:DOX.frivillig.<tspan x="0" y="10.8">medieafdeling</tspan></text><polygon class="cls-2" points="67.68 80.92 67.51 58.84 127.44 58.32 127.6 80.4 67.68 80.92"/><text class="cls-5" transform="matrix(0.01, 1.08, -1, 0.01, 82.93, 59.98)">{</text><text class="cls-6" transform="translate(72.58 43)">Boet i Brasilien.<tspan x="0" y="10.8">i et halvt år.</tspan></text><text class="cls-6" transform="translate(170.09 41.5)">Læst 4.semestre. BA i sprog. <tspan x="0" y="10.8">Københavns universitet.</tspan></text></svg>
